<svg xmlns="http://www.w3.org/2000/svg" width="24.859" height="24.858" viewBox="0 0 24.859 24.858">
  <g id="call" transform="translate(-1 -1.018)">
    <g id="Group_2" data-name="Group 2" transform="translate(1 1.018)">
      <g id="Group_1" data-name="Group 1">
        <path id="Path_1" data-name="Path 1" d="M25.208,20.195l-5.032-3.356a1.469,1.469,0,0,0-1.967.319l-1.466,1.884a.626.626,0,0,1-.8.169l-.279-.154A16.849,16.849,0,0,1,11.27,15.61a16.918,16.918,0,0,1-3.449-4.391l-.153-.279a.627.627,0,0,1,.166-.806L9.717,8.668a1.469,1.469,0,0,0,.32-1.967L6.682,1.67a1.461,1.461,0,0,0-1.969-.443l-2.1,1.264A2.968,2.968,0,0,0,1.255,4.247C.5,7.008,1.067,11.772,8.086,18.792c5.583,5.583,9.739,7.084,12.6,7.084a7.339,7.339,0,0,0,1.947-.254,2.965,2.965,0,0,0,1.756-1.353l1.265-2.1A1.461,1.461,0,0,0,25.208,20.195Zm-.271,1.545-1.262,2.1a2.141,2.141,0,0,1-1.264.979c-2.549.7-7,.12-13.739-6.618S1.354,7.015,2.054,4.467A2.144,2.144,0,0,1,3.034,3.2l2.1-1.262a.634.634,0,0,1,.855.192L7.816,4.868l1.53,2.295a.638.638,0,0,1-.138.853L7.324,9.481a1.45,1.45,0,0,0-.384,1.861l.15.272A17.574,17.574,0,0,0,10.68,16.2a17.593,17.593,0,0,0,4.581,3.59l.272.15a1.45,1.45,0,0,0,1.861-.384l1.465-1.884a.638.638,0,0,1,.853-.138l5.031,3.356A.633.633,0,0,1,24.937,21.74Z" transform="translate(-1 -1.018)" fill="#f9b047"/>
        <path id="Path_2" data-name="Path 2" d="M283.042,70.153a7.05,7.05,0,0,1,7.043,7.043.414.414,0,0,0,.828,0,7.88,7.88,0,0,0-7.871-7.871.414.414,0,1,0,0,.828Z" transform="translate(-268.956 -66.008)" fill="#f9b047"/>
        <path id="Path_3" data-name="Path 3" d="M283.042,121.353a4.562,4.562,0,0,1,4.557,4.557.414.414,0,1,0,.828,0,5.392,5.392,0,0,0-5.385-5.385.414.414,0,1,0,0,.828Z" transform="translate(-268.956 -114.722)" fill="#f9b047"/>
        <path id="Path_4" data-name="Path 4" d="M283.042,172.552a2.074,2.074,0,0,1,2.071,2.071.414.414,0,1,0,.828,0,2.9,2.9,0,0,0-2.9-2.9.414.414,0,1,0,0,.828Z" transform="translate(-268.956 -163.437)" fill="#f9b047"/>
      </g>
    </g>
  </g>
</svg>
