<svg xmlns="http://www.w3.org/2000/svg" width="11.186" height="22.145" viewBox="0 0 11.186 22.145">
  <path id="facebook_1_" data-name="facebook (1)" d="M127.039,11.794h2.427v9.993a.357.357,0,0,0,.357.357h4.116a.357.357,0,0,0,.357-.357V11.841h2.79a.357.357,0,0,0,.355-.316l.424-3.679a.357.357,0,0,0-.355-.4H134.3V5.142c0-.7.374-1.048,1.113-1.048h2.1a.357.357,0,0,0,.357-.357V.36A.357.357,0,0,0,137.511,0h-2.9c-.02,0-.066,0-.133,0a5.55,5.55,0,0,0-3.629,1.368,3.806,3.806,0,0,0-1.266,3.383v2.7h-2.548a.357.357,0,0,0-.357.357v3.632A.357.357,0,0,0,127.039,11.794Z" transform="translate(-126.682)" fill="#fff"/>
</svg>
