<svg xmlns="http://www.w3.org/2000/svg" width="98" height="98" viewBox="0 0 98 98"><defs><clipPath id="eu9ma"><path fill="#fff" d="M49.041.396c26.801 0 48.527 21.731 48.527 48.537 0 26.806-21.726 48.537-48.527 48.537-26.8 0-48.527-21.73-48.527-48.537C.514 22.127 22.24.396 49.04.396z"/></clipPath></defs><g><g opacity=".4"><path fill="none" stroke="#fff" stroke-miterlimit="20" stroke-width="4" d="M49.041.396c26.801 0 48.527 21.731 48.527 48.537 0 26.806-21.726 48.537-48.527 48.537-26.8 0-48.527-21.73-48.527-48.537C.514 22.127 22.24.396 49.04.396z" clip-path="url(&quot;#eu9ma&quot;)"/></g><g><path fill="#fff" d="M49.041 36.388c-6.916 0-12.542 5.628-12.542 12.545s5.626 12.573 12.542 12.573c6.916 0 12.542-5.656 12.542-12.573 0-6.917-5.626-12.545-12.542-12.545 0 0 6.916 0 0 0zm0-1.792c7.917 0 14.334 6.42 14.334 14.337 0 7.919-6.417 14.337-14.334 14.337-7.916 0-14.334-6.418-14.334-14.337 0-7.918 6.418-14.337 14.334-14.337zm0 4.48c.495 0 .896.402.896.897v8.596l4.229 4.23a.896.896 0 0 1-1.268 1.267l-4.434-4.435a.906.906 0 0 1-.066-.074.893.893 0 0 1-.253-.624v-8.96c0-.495.401-.896.896-.896z"/></g></g></svg>