<svg xmlns="http://www.w3.org/2000/svg" width="98" height="98" viewBox="0 0 98 98"><defs><clipPath id="d133a"><path fill="#fff" d="M48.705.396c26.801 0 48.528 21.731 48.528 48.537 0 26.806-21.727 48.537-48.528 48.537-26.8 0-48.527-21.73-48.527-48.537C.178 22.127 21.904.396 48.705.396z"/></clipPath></defs><g><g opacity=".4"><path fill="none" stroke="#fff" stroke-miterlimit="20" stroke-width="4" d="M48.705.396c26.801 0 48.528 21.731 48.528 48.537 0 26.806-21.727 48.537-48.528 48.537-26.8 0-48.527-21.73-48.527-48.537C.178 22.127 21.904.396 48.705.396z" clip-path="url(&quot;#d133a&quot;)"/></g><g><path fill="#fff" d="M39.257 41.724V38.53h-3.61c-.041.86.042 2.364.873 3.384.61.751 1.565 1.192 2.84 1.313-.067-.49-.103-.993-.103-1.504zm0-6.029c0-.523.42-.946.938-.946h16.867c.518 0 .937.423.937.946v.944h4.59a.94.94 0 0 1 .919.756c.027.137.657 3.45-1.17 5.709-1.073 1.327-2.72 2.016-4.895 2.05-1.205 3.584-4.242 6.232-7.886 6.62v6.585h2.899c.518 0 .938.424.938.946 0 .523-.42.946-.938.946h-7.581a.941.941 0 0 1-.938-.946c0-.522.42-.946.938-.946h2.807v-6.588c-3.637-.395-6.667-3.04-7.87-6.62-2.105-.062-3.702-.75-4.752-2.047-1.826-2.258-1.197-5.572-1.17-5.71a.94.94 0 0 1 .919-.755h4.448zM58 41.724c0 .515-.036 1.022-.105 1.516 1.349-.1 2.351-.546 2.985-1.325.83-1.02.914-2.523.872-3.384h-3.752zM41.133 36.64v5.083c0 4.525 3.363 8.207 7.497 8.207 4.132 0 7.494-3.682 7.494-8.207V36.64zm14.125 26.476H42.072a.941.941 0 0 1-.937-.945c0-.523.419-.946.937-.946h13.186c.519 0 .938.423.938.946 0 .522-.42.945-.938.945z"/></g></g></svg>