<svg id="search_2_" data-name="search (2)" xmlns="http://www.w3.org/2000/svg" width="18.074" height="18.075" viewBox="0 0 18.074 18.075">
  <path id="Path_61" data-name="Path 61" d="M4.006,144.31l-.629,2.349-2.3.049a9.053,9.053,0,0,1-.067-8.439h0l2.047.375.9,2.035a5.394,5.394,0,0,0,.051,3.631Z" transform="translate(0 -133.387)" fill="#fff"/>
  <path id="Path_62" data-name="Path 62" d="M270.309,208.176a9.034,9.034,0,0,1-3.222,8.736h0l-2.579-.132-.365-2.278a5.386,5.386,0,0,0,2.317-2.75h-4.832v-3.575h8.681Z" transform="translate(-252.392 -200.827)" fill="#fff"/>
  <path id="Path_63" data-name="Path 63" d="M44.126,314.571h0a9.04,9.04,0,0,1-13.618-2.765l2.929-2.4a5.375,5.375,0,0,0,7.745,2.752Z" transform="translate(-29.432 -298.486)" fill="#fff"/>
  <path id="Path_64" data-name="Path 64" d="M42.419,2.081l-2.928,2.4a5.374,5.374,0,0,0-7.923,2.814l-2.944-2.41h0a9.039,9.039,0,0,1,13.8-2.8Z" transform="translate(-27.614 0)" fill="#fff"/>
</svg>
