<svg xmlns="http://www.w3.org/2000/svg" width="20.835" height="16.928" viewBox="0 0 20.835 16.928">
  <path id="twitter_1_" data-name="twitter (1)" d="M20.835,50a8.9,8.9,0,0,1-2.461.675,4.247,4.247,0,0,0,1.879-2.361,8.536,8.536,0,0,1-2.709,1.034,4.271,4.271,0,0,0-7.389,2.921,4.4,4.4,0,0,0,.1.974,12.09,12.09,0,0,1-8.8-4.468,4.272,4.272,0,0,0,1.313,5.709,4.218,4.218,0,0,1-1.93-.526v.047a4.291,4.291,0,0,0,3.422,4.2,4.263,4.263,0,0,1-1.12.141,3.777,3.777,0,0,1-.809-.073,4.312,4.312,0,0,0,3.991,2.975,8.582,8.582,0,0,1-5.3,1.822A8,8,0,0,1,0,63.011a12.025,12.025,0,0,0,6.553,1.917A12.073,12.073,0,0,0,18.71,52.774c0-.189-.007-.371-.016-.552A8.521,8.521,0,0,0,20.835,50Z" transform="translate(0 -48)" fill="#fff"/>
</svg>
