<svg id="verified" xmlns="http://www.w3.org/2000/svg" width="143.885" height="143.885" viewBox="0 0 143.885 143.885">
  <g id="Group_34" data-name="Group 34" transform="translate(0 0)">
    <g id="Group_33" data-name="Group 33">
      <path id="Path_206" data-name="Path 206" d="M122.814,21.071A71.943,71.943,0,0,0,21.071,122.813,71.943,71.943,0,1,0,122.814,21.071ZM71.943,135.454a63.512,63.512,0,1,1,63.512-63.512A63.584,63.584,0,0,1,71.943,135.454Z" transform="translate(0 0)" fill="#fbaf41"/>
    </g>
  </g>
  <g id="Group_36" data-name="Group 36" transform="translate(36.337 47.625)">
    <g id="Group_35" data-name="Group 35">
      <path id="Path_207" data-name="Path 207" d="M199.277,170.7a4.216,4.216,0,0,0-5.961,0l-37.224,37.224-19.6-19.6a4.215,4.215,0,1,0-5.961,5.961l22.576,22.576a4.215,4.215,0,0,0,5.961,0l40.205-40.205A4.215,4.215,0,0,0,199.277,170.7Z" transform="translate(-129.301 -169.467)" fill="#fbaf41"/>
    </g>
  </g>
</svg>
